<?xml version="1.0" encoding="UTF-8"?>
<!DOCTYPE svg PUBLIC "-//W3C//DTD SVG 1.1//EN" "http://www.w3.org/Graphics/SVG/1.1/DTD/svg11.dtd">
<svg xmlns="http://www.w3.org/2000/svg" version="1.1" width="409px" height="409px" style="shape-rendering:geometricPrecision; text-rendering:geometricPrecision; image-rendering:optimizeQuality; fill-rule:evenodd; clip-rule:evenodd" xmlns:xlink="http://www.w3.org/1999/xlink">
<g><path style="opacity:0.994" fill="#fefefe" d="M 183.5,-0.5 C 197.167,-0.5 210.833,-0.5 224.5,-0.5C 295.13,8.72046 348.297,44.0538 384,105.5C 397.135,130.068 405.301,156.068 408.5,183.5C 408.5,197.167 408.5,210.833 408.5,224.5C 399.28,295.13 363.946,348.297 302.5,384C 277.932,397.135 251.932,405.301 224.5,408.5C 210.833,408.5 197.167,408.5 183.5,408.5C 112.87,399.28 59.7035,363.946 24,302.5C 10.8654,277.932 2.69873,251.932 -0.5,224.5C -0.5,210.833 -0.5,197.167 -0.5,183.5C 8.72046,112.87 44.0538,59.7035 105.5,24C 130.068,10.8654 156.068,2.69873 183.5,-0.5 Z"/></g>
<g><path style="opacity:1" fill="#f3b14f" d="M 52.5,187.5 C 47.807,189.36 42.807,190.026 37.5,189.5C 37.5,188.167 37.5,186.833 37.5,185.5C 44.9511,136.546 71.6177,102.713 117.5,84C 131.399,78.92 145.732,76.7533 160.5,77.5C 160.5,82.1667 160.5,86.8333 160.5,91.5C 107.448,94.063 72.2815,120.396 55,170.5C 53.8403,176.129 53.0069,181.796 52.5,187.5 Z"/></g>
<g><path style="opacity:1" fill="#4d4949" d="M 231.5,149.5 C 230.85,149.196 230.183,148.863 229.5,148.5C 228.593,145.444 227.093,142.778 225,140.5C 221.909,145.014 218.575,149.347 215,153.5C 214.982,155.797 215.149,158.131 215.5,160.5C 212.773,155.895 209.94,151.229 207,146.5C 205.667,145.167 204.333,143.833 203,142.5C 193.986,151.348 185.152,160.348 176.5,169.5C 180.522,173.854 184.522,178.187 188.5,182.5C 187.833,184.5 187.167,186.5 186.5,188.5C 181.477,183.642 176.31,178.975 171,174.5C 166.062,178.818 161.062,183.151 156,187.5C 151.545,184.048 147.378,180.214 143.5,176C 141.741,175.202 140.074,175.369 138.5,176.5C 137.395,178.611 135.729,179.945 133.5,180.5C 134.897,178.178 134.23,176.511 131.5,175.5C 132.699,173.615 134.033,171.782 135.5,170C 126.988,160.489 118.155,151.322 109,142.5C 92.3845,157.065 83.8845,175.398 83.5,197.5C 82.8186,195.842 81.9853,194.175 81,192.5C 66.0986,200.689 50.5986,207.523 34.5,213C 26.1733,213.5 17.84,213.666 9.5,213.5C 9.5,208.167 9.5,202.833 9.5,197.5C 27.1667,197.5 44.8333,197.5 62.5,197.5C 65.91,152.916 88.5767,122.75 130.5,107C 154.809,100.524 178.142,102.858 200.5,114C 214.62,122.614 224.953,134.447 231.5,149.5 Z"/></g>
<g><path style="opacity:1" fill="#fcfcfc" d="M 149.5,123.5 C 167.973,121.619 184.306,126.452 198.5,138C 184.584,152.251 170.418,166.084 156,179.5C 141.762,166.43 127.929,152.763 114.5,138.5C 119.849,134.006 125.849,130.506 132.5,128C 138.246,126.359 143.912,124.859 149.5,123.5 Z"/></g>
<g><path style="opacity:1" fill="#fcfcfc" d="M 131.5,175.5 C 123.391,182.437 115.391,189.604 107.5,197C 99.5069,197.5 91.5069,197.666 83.5,197.5C 83.8845,175.398 92.3845,157.065 109,142.5C 118.155,151.322 126.988,160.489 135.5,170C 134.033,171.782 132.699,173.615 131.5,175.5 Z"/></g>
<g><path style="opacity:1" fill="#fbfbfb" d="M 215.5,160.5 C 219.283,172.527 221.616,184.861 222.5,197.5C 216.491,197.666 210.491,197.499 204.5,197C 199.595,191.59 194.262,186.757 188.5,182.5C 184.522,178.187 180.522,173.854 176.5,169.5C 185.152,160.348 193.986,151.348 203,142.5C 204.333,143.833 205.667,145.167 207,146.5C 209.94,151.229 212.773,155.895 215.5,160.5 Z"/></g>
<g><path style="opacity:1" fill="#494545" d="M 231.5,149.5 C 236.842,160.182 240.342,171.515 242,183.5C 242.5,193.828 242.666,204.161 242.5,214.5C 189.829,214.167 137.162,214.5 84.5,215.5C 84.6236,216.107 84.9569,216.44 85.5,216.5C 93.7811,247.28 113.448,266.447 144.5,274C 159.821,275.858 174.654,274.025 189,268.5C 193.632,272.802 197.965,277.468 202,282.5C 202.667,283.167 202.667,283.833 202,284.5C 160.534,303.201 123.201,297.201 90,266.5C 76.4531,252.027 67.9531,235.027 64.5,215.5C 46.1667,214.833 27.8333,214.167 9.5,213.5C 17.84,213.666 26.1733,213.5 34.5,213C 50.5986,207.523 66.0986,200.689 81,192.5C 81.9853,194.175 82.8186,195.842 83.5,197.5C 91.5069,197.666 99.5069,197.5 107.5,197C 115.391,189.604 123.391,182.437 131.5,175.5C 134.23,176.511 134.897,178.178 133.5,180.5C 128.528,185.807 123.528,191.14 118.5,196.5C 130.259,197.176 142.759,197.509 156,197.5C 168.833,197.167 181.667,196.833 194.5,196.5C 194.376,195.893 194.043,195.56 193.5,195.5C 190.833,193.5 188.5,191.167 186.5,188.5C 187.167,186.5 187.833,184.5 188.5,182.5C 194.262,186.757 199.595,191.59 204.5,197C 210.491,197.499 216.491,197.666 222.5,197.5C 221.616,184.861 219.283,172.527 215.5,160.5C 215.149,158.131 214.982,155.797 215,153.5C 218.575,149.347 221.909,145.014 225,140.5C 227.093,142.778 228.593,145.444 229.5,148.5C 230.183,148.863 230.85,149.196 231.5,149.5 Z"/></g>
<g><path style="opacity:1" fill="#fbfbfb" d="M 186.5,188.5 C 188.5,191.167 190.833,193.5 193.5,195.5C 168.672,196.498 143.672,196.831 118.5,196.5C 123.528,191.14 128.528,185.807 133.5,180.5C 135.729,179.945 137.395,178.611 138.5,176.5C 140.074,175.369 141.741,175.202 143.5,176C 147.378,180.214 151.545,184.048 156,187.5C 161.062,183.151 166.062,178.818 171,174.5C 176.31,178.975 181.477,183.642 186.5,188.5 Z"/></g>
<g><path style="opacity:1" fill="#f4cb8b" d="M 37.5,185.5 C 37.5,186.833 37.5,188.167 37.5,189.5C 42.807,190.026 47.807,189.36 52.5,187.5C 52.5,188.5 52.5,189.5 52.5,190.5C 47.1667,190.5 41.8333,190.5 36.5,190.5C 36.2155,188.585 36.5489,186.919 37.5,185.5 Z"/></g>
<g><path style="opacity:1" fill="#e2e1e1" d="M 193.5,195.5 C 194.043,195.56 194.376,195.893 194.5,196.5C 181.667,196.833 168.833,197.167 156,197.5C 142.759,197.509 130.259,197.176 118.5,196.5C 143.672,196.831 168.672,196.498 193.5,195.5 Z"/></g>
<g><path style="opacity:1" fill="#9b9a99" d="M 9.5,197.5 C 9.5,202.833 9.5,208.167 9.5,213.5C 27.8333,214.167 46.1667,214.833 64.5,215.5C 45.8333,215.5 27.1667,215.5 8.5,215.5C 8.17711,209.31 8.51045,203.31 9.5,197.5 Z"/></g>
<g><path style="opacity:1" fill="#a09f9e" d="M 242.5,214.5 C 190.167,215.167 137.833,215.833 85.5,216.5C 84.9569,216.44 84.6236,216.107 84.5,215.5C 137.162,214.5 189.829,214.167 242.5,214.5 Z"/></g>
<g><path style="opacity:1" fill="#e48172" d="M 39.5,222.5 C 44.3054,221.513 49.3054,221.179 54.5,221.5C 54.5,222.833 54.5,224.167 54.5,225.5C 53.596,224.791 53.2627,223.791 53.5,222.5C 48.8333,222.5 44.1667,222.5 39.5,222.5 Z"/></g>
<g><path style="opacity:1" fill="#888786" d="M 217.5,230.5 C 221.634,229.515 225.968,229.182 230.5,229.5C 230.5,231.5 230.5,233.5 230.5,235.5C 229.549,234.081 229.216,232.415 229.5,230.5C 225.833,230.5 222.167,230.5 218.5,230.5C 218.167,230.5 217.833,230.5 217.5,230.5 Z"/></g>
<g><path style="opacity:1" fill="#464242" d="M 230.5,252.5 C 229.505,263.988 229.172,275.655 229.5,287.5C 225.833,287.5 222.167,287.5 218.5,287.5C 218.5,268.5 218.5,249.5 218.5,230.5C 222.167,230.5 225.833,230.5 229.5,230.5C 229.216,232.415 229.549,234.081 230.5,235.5C 239.877,226.367 249.543,226.2 259.5,235C 256.651,238.016 253.651,240.85 250.5,243.5C 243.459,238.923 237.293,239.923 232,246.5C 231.187,248.436 230.687,250.436 230.5,252.5 Z"/></g>
<g><path style="opacity:1" fill="#454241" d="M 305.5,230.5 C 309.5,230.5 313.5,230.5 317.5,230.5C 317.5,249.833 317.5,269.167 317.5,288.5C 317.034,301.141 310.701,309.308 298.5,313C 283.552,316.909 271.219,313.076 261.5,301.5C 264.167,298.833 266.833,296.167 269.5,293.5C 278.697,302.324 289.03,303.824 300.5,298C 305.367,293.047 306.701,287.214 304.5,280.5C 288.234,291.48 274.734,288.813 264,272.5C 256.471,254.424 260.971,240.257 277.5,230C 287.689,227.008 296.855,228.841 305,235.5C 305.494,233.866 305.66,232.199 305.5,230.5 Z"/></g>
<g><path style="opacity:1" fill="#444040" d="M 374.5,235.5 C 375.451,234.081 375.784,232.415 375.5,230.5C 379.5,230.5 383.5,230.5 387.5,230.5C 387.5,249.833 387.5,269.167 387.5,288.5C 383.167,288.5 378.833,288.5 374.5,288.5C 374.785,286.712 374.452,285.045 373.5,283.5C 356.962,293.896 343.462,290.896 333,274.5C 325.672,257.512 329.172,243.346 343.5,232C 354.635,226.7 364.969,227.867 374.5,235.5 Z"/></g>
<g><path style="opacity:1" fill="#878584" d="M 387.5,230.5 C 383.5,230.5 379.5,230.5 375.5,230.5C 375.784,232.415 375.451,234.081 374.5,235.5C 374.5,233.5 374.5,231.5 374.5,229.5C 379.032,229.182 383.366,229.515 387.5,230.5 Z"/></g>
<g><path style="opacity:1" fill="#fafafa" d="M 286.5,240.5 C 303.892,241.943 309.725,250.943 304,267.5C 298.683,274.088 291.85,276.255 283.5,274C 272.597,266.294 270.764,256.794 278,245.5C 280.682,243.415 283.516,241.748 286.5,240.5 Z"/></g>
<g><path style="opacity:1" fill="#fbfbfb" d="M 355.5,240.5 C 370.748,241.311 377.248,249.311 375,264.5C 370.482,276.34 362.315,279.84 350.5,275C 341.936,266.989 340.436,257.823 346,247.5C 348.809,244.502 351.976,242.169 355.5,240.5 Z"/></g>
<g><path style="opacity:1" fill="#5a5958" d="M 217.5,230.5 C 217.833,230.5 218.167,230.5 218.5,230.5C 218.5,249.5 218.5,268.5 218.5,287.5C 222.167,287.5 225.833,287.5 229.5,287.5C 229.172,275.655 229.505,263.988 230.5,252.5C 230.5,264.5 230.5,276.5 230.5,288.5C 226.167,288.5 221.833,288.5 217.5,288.5C 217.5,269.167 217.5,249.833 217.5,230.5 Z"/></g>
<g><path style="opacity:1" fill="#626060" d="M 305.5,230.5 C 309.634,229.515 313.968,229.182 318.5,229.5C 318.83,249.34 318.497,269.007 317.5,288.5C 317.5,269.167 317.5,249.833 317.5,230.5C 313.5,230.5 309.5,230.5 305.5,230.5 Z"/></g>
<g><path style="opacity:1" fill="#e65944" d="M 39.5,222.5 C 44.1667,222.5 48.8333,222.5 53.5,222.5C 53.2627,223.791 53.596,224.791 54.5,225.5C 70.8955,277.055 106.229,304.055 160.5,306.5C 160.5,311.5 160.5,316.5 160.5,321.5C 124.972,321.312 94.8055,308.645 70,283.5C 53.9749,266.116 43.8082,245.783 39.5,222.5 Z"/></g>
</svg>
