<?xml version="1.0" encoding="UTF-8"?>
<!DOCTYPE svg PUBLIC "-//W3C//DTD SVG 1.1//EN" "http://www.w3.org/Graphics/SVG/1.1/DTD/svg11.dtd">
<svg xmlns="http://www.w3.org/2000/svg" version="1.1" width="512px" height="512px" style="shape-rendering:geometricPrecision; text-rendering:geometricPrecision; image-rendering:optimizeQuality; fill-rule:evenodd; clip-rule:evenodd" xmlns:xlink="http://www.w3.org/1999/xlink">
<g><path style="opacity:0.059" fill="#000000" d="M 88.5,42.5 C 199.834,42.3333 311.167,42.5 422.5,43C 437.553,42.9533 450.719,47.7867 462,57.5C 466.682,63.5241 470.349,70.1907 473,77.5C 473.886,82.4702 474.552,87.4702 475,92.5C 475.667,206.167 475.667,319.833 475,433.5C 474.011,448.308 468.511,461.141 458.5,472C 452.725,475.439 446.725,478.439 440.5,481C 435.53,481.886 430.53,482.552 425.5,483C 312.167,483.667 198.833,483.667 85.5,483C 71.6887,482.173 59.522,477.34 49,468.5C 41.0752,458.291 36.7419,446.624 36,433.5C 35.3333,319.833 35.3333,206.167 36,92.5C 37.1838,69.0072 48.6838,53.1739 70.5,45C 76.6891,44.483 82.6891,43.6497 88.5,42.5 Z"/></g>
<g><path style="opacity:1" fill="#fefefe" d="M 457.5,78.5 C 457.667,196.167 457.5,313.834 457,431.5C 452.752,445.081 443.585,452.915 429.5,455C 312.167,455.667 194.833,455.667 77.5,455C 66.4648,451.127 58.4648,443.96 53.5,433.5C 52.3391,315.194 52.1725,196.861 53,78.5C 56.1667,64.6667 64.6667,56.1667 78.5,53C 196.167,52.3333 313.833,52.3333 431.5,53C 445.979,55.6464 454.646,64.1464 457.5,78.5 Z"/></g>
<g><path style="opacity:1" fill="#f3b152" d="M 213.5,167.5 C 216.5,167.5 219.5,167.5 222.5,167.5C 222.5,171.167 222.5,174.833 222.5,178.5C 187.405,179.626 162.238,195.959 147,227.5C 144.02,235.231 142.52,243.231 142.5,251.5C 138.5,251.5 134.5,251.5 130.5,251.5C 133.931,215.154 152.264,189.32 185.5,174C 194.649,170.489 203.982,168.323 213.5,167.5 Z"/></g>
<g><path style="opacity:1" fill="#4c4848" d="M 283.5,269.5 C 244.5,269.5 205.5,269.5 166.5,269.5C 166.232,271.099 166.566,272.432 167.5,273.5C 177.844,303.352 198.844,316.519 230.5,313C 234.654,312.337 238.654,311.171 242.5,309.5C 245.737,312.232 248.904,315.232 252,318.5C 253.241,319.877 253.408,321.21 252.5,322.5C 220.684,335.346 192.517,330.013 168,306.5C 158.949,295.73 153.116,283.397 150.5,269.5C 136.833,269.5 123.167,269.5 109.5,269.5C 109.5,265.167 109.5,260.833 109.5,256.5C 122.833,256.5 136.167,256.5 149.5,256.5C 152.629,220.532 171.629,197.699 206.5,188C 249.4,183.889 274.9,203.055 283,245.5C 283.5,253.493 283.666,261.493 283.5,269.5 Z"/></g>
<g><path style="opacity:1" fill="#fafafa" d="M 209.5,202.5 C 224.94,199.631 238.607,203.131 250.5,213C 240.357,223.475 229.857,233.642 219,243.5C 208.349,234.016 198.182,224.016 188.5,213.5C 190.431,211.196 192.764,209.362 195.5,208C 200.159,205.842 204.825,204.009 209.5,202.5 Z"/></g>
<g><path style="opacity:1" fill="#fbfafa" d="M 182.5,216.5 C 190.091,222.421 197.091,229.088 203.5,236.5C 197.068,243.221 190.402,249.721 183.5,256C 177.509,256.499 171.509,256.666 165.5,256.5C 165.725,240.818 171.391,227.485 182.5,216.5 Z"/></g>
<g><path style="opacity:1" fill="#fafaf9" d="M 252.5,217.5 C 254.39,217.297 255.89,217.963 257,219.5C 264.459,230.71 267.959,243.043 267.5,256.5C 263.154,256.666 258.821,256.499 254.5,256C 247.713,250.18 241.213,244.013 235,237.5C 234.333,236.5 234.333,235.5 235,234.5C 241.337,229.329 247.17,223.663 252.5,217.5 Z"/></g>
<g><path style="opacity:1" fill="#f9f9f9" d="M 206.5,240.5 C 210.464,243.608 214.631,246.608 219,249.5C 222.453,247.05 225.62,244.217 228.5,241C 229.5,240.333 230.5,240.333 231.5,241C 236.5,246 241.5,251 246.5,256C 227.833,256.667 209.167,256.667 190.5,256C 196.337,251.33 201.67,246.163 206.5,240.5 Z"/></g>
<g><path style="opacity:1" fill="#dfdddc" d="M 283.5,269.5 C 245.004,270.499 206.337,270.832 167.5,270.5C 167.5,271.5 167.5,272.5 167.5,273.5C 166.566,272.432 166.232,271.099 166.5,269.5C 205.5,269.5 244.5,269.5 283.5,269.5 Z"/></g>
<g><path style="opacity:1" fill="#f4c0b7" d="M 143.5,275.5 C 139.833,275.5 136.167,275.5 132.5,275.5C 132.5,276.833 132.5,278.167 132.5,279.5C 131.549,278.081 131.216,276.415 131.5,274.5C 135.702,274.183 139.702,274.517 143.5,275.5 Z"/></g>
<g><path style="opacity:1" fill="#8c8a89" d="M 264.5,281.5 C 267.625,280.521 270.958,280.187 274.5,280.5C 274.263,281.791 274.596,282.791 275.5,283.5C 275.44,284.043 275.107,284.376 274.5,284.5C 273.614,283.675 273.281,282.675 273.5,281.5C 270.5,281.5 267.5,281.5 264.5,281.5 Z"/></g>
<g><path style="opacity:1" fill="#898786" d="M 339.5,281.5 C 336.5,281.5 333.5,281.5 330.5,281.5C 330.84,283.548 330.507,284.548 329.5,284.5C 329.5,283.167 329.5,281.833 329.5,280.5C 333.042,280.187 336.375,280.521 339.5,281.5 Z"/></g>
<g><path style="opacity:1" fill="#484545" d="M 274.5,296.5 C 273.506,305.652 273.173,314.985 273.5,324.5C 270.5,324.5 267.5,324.5 264.5,324.5C 264.5,310.167 264.5,295.833 264.5,281.5C 267.5,281.5 270.5,281.5 273.5,281.5C 273.281,282.675 273.614,283.675 274.5,284.5C 275.107,284.376 275.44,284.043 275.5,283.5C 282.41,277.96 289.077,278.293 295.5,284.5C 293.5,286.833 291.5,289.167 289.5,291.5C 282.543,287.828 277.543,289.495 274.5,296.5 Z"/></g>
<g><path style="opacity:1" fill="#474444" d="M 379.5,283.5 C 379.56,284.043 379.893,284.376 380.5,284.5C 381.386,283.675 381.719,282.675 381.5,281.5C 384.5,281.5 387.5,281.5 390.5,281.5C 390.5,295.833 390.5,310.167 390.5,324.5C 387.5,324.5 384.5,324.5 381.5,324.5C 381.762,323.022 381.429,321.689 380.5,320.5C 374.119,325.345 367.119,326.512 359.5,324C 354.279,320.701 350.612,316.201 348.5,310.5C 348.081,304.014 348.748,297.681 350.5,291.5C 357.56,279.127 367.227,276.46 379.5,283.5 Z"/></g>
<g><path style="opacity:1" fill="#8c8a8a" d="M 381.5,324.5 C 384.5,324.5 387.5,324.5 390.5,324.5C 390.5,310.167 390.5,295.833 390.5,281.5C 387.5,281.5 384.5,281.5 381.5,281.5C 381.719,282.675 381.386,283.675 380.5,284.5C 379.893,284.376 379.56,284.043 379.5,283.5C 380.404,282.791 380.737,281.791 380.5,280.5C 384.167,280.5 387.833,280.5 391.5,280.5C 391.5,295.5 391.5,310.5 391.5,325.5C 387.958,325.813 384.625,325.479 381.5,324.5 Z"/></g>
<g><path style="opacity:1" fill="#484444" d="M 329.5,284.5 C 330.507,284.548 330.84,283.548 330.5,281.5C 333.5,281.5 336.5,281.5 339.5,281.5C 339.667,296.837 339.5,312.17 339,327.5C 334.046,340.567 324.546,345.734 310.5,343C 304.152,342.279 299.985,339.113 298,333.5C 299.684,331.649 301.517,329.982 303.5,328.5C 311.463,336.022 319.63,336.355 328,329.5C 329.656,326.247 329.823,322.913 328.5,319.5C 321.995,323.76 314.995,324.593 307.5,322C 296.947,313.664 294.114,303.164 299,290.5C 307.242,278.451 317.409,276.451 329.5,284.5 Z"/></g>
<g><path style="opacity:1" fill="#f9f9f8" d="M 315.5,289.5 C 328.758,289.593 333.258,295.927 329,308.5C 321.962,316.379 314.962,316.379 308,308.5C 304.064,299.351 306.564,293.018 315.5,289.5 Z"/></g>
<g><path style="opacity:1" fill="#fbfbfb" d="M 378.5,293.5 C 380.958,297.783 381.958,302.449 381.5,307.5C 378.103,314.861 372.436,317.361 364.5,315C 355.723,307.266 355.39,299.266 363.5,291C 369.192,288.453 374.192,289.287 378.5,293.5 Z"/></g>
<g><path style="opacity:1" fill="#b0afae" d="M 350.5,291.5 C 348.748,297.681 348.081,304.014 348.5,310.5C 347.35,305.684 347.184,300.684 348,295.5C 348.2,293.68 349.034,292.347 350.5,291.5 Z"/></g>
<g><path style="opacity:1" fill="#979695" d="M 274.5,296.5 C 274.5,306.167 274.5,315.833 274.5,325.5C 270.958,325.813 267.625,325.479 264.5,324.5C 267.5,324.5 270.5,324.5 273.5,324.5C 273.173,314.985 273.506,305.652 274.5,296.5 Z"/></g>
<g><path style="opacity:1" fill="#9e9d9c" d="M 378.5,293.5 C 380.61,294.453 381.777,296.119 382,298.5C 382.805,301.696 382.638,304.696 381.5,307.5C 381.958,302.449 380.958,297.783 378.5,293.5 Z"/></g>
<g><path style="opacity:1" fill="#e55a45" d="M 143.5,275.5 C 149.783,301.965 165.45,320.799 190.5,332C 197.253,334.784 204.253,336.617 211.5,337.5C 214.625,338.479 217.958,338.813 221.5,338.5C 221.5,341.833 221.5,345.167 221.5,348.5C 218.167,348.5 214.833,348.5 211.5,348.5C 170.596,342.268 144.263,319.268 132.5,279.5C 132.5,278.167 132.5,276.833 132.5,275.5C 136.167,275.5 139.833,275.5 143.5,275.5 Z"/></g>
<g><path style="opacity:1" fill="#e68576" d="M 211.5,337.5 C 215.167,337.5 218.833,337.5 222.5,337.5C 222.5,341.5 222.5,345.5 222.5,349.5C 218.629,349.815 214.962,349.482 211.5,348.5C 214.833,348.5 218.167,348.5 221.5,348.5C 221.5,345.167 221.5,341.833 221.5,338.5C 217.958,338.813 214.625,338.479 211.5,337.5 Z"/></g>
<g><path style="opacity:0.999" fill="#cccccc" d="M 457.5,78.5 C 458.666,196.333 458.833,314.333 458,432.5C 454.5,446 446,454.5 432.5,458C 314.5,458.667 196.5,458.667 78.5,458C 65.6839,454.35 57.3506,446.183 53.5,433.5C 58.4648,443.96 66.4648,451.127 77.5,455C 194.833,455.667 312.167,455.667 429.5,455C 443.585,452.915 452.752,445.081 457,431.5C 457.5,313.834 457.667,196.167 457.5,78.5 Z"/></g>
</svg>
